<svg id="Layer_1" data-name="Layer 1" xmlns="http://www.w3.org/2000/svg" viewBox="0 0 1024 1024"><defs><style>.cls-1{fill:#3ac6fc;}.cls-2{fill:#e61b72;}.cls-3,.cls-5{fill:#fff;}.cls-3{opacity:0.7;}.cls-4{fill:#d30065;}.cls-6{fill:#846541;}.cls-7{fill:#e8b2c8;}.cls-8{fill:#98794d;}.cls-9{fill:#b69f7e;}.cls-10{fill:#876844;}.cls-11{fill:#dda6c0;}.cls-12{fill:#1d1d1b;}.cls-13{fill:#333;}.cls-14{fill:#575756;}.cls-15{fill:#bc0063;}.cls-16{fill:#7b5a3c;}</style></defs><circle class="cls-1" cx="512" cy="512" r="512"/><path class="cls-2" d="M392,845.9H773.22c34.67,0,56.26-37.63,38.75-67.56L762.1,693.11c-81.37-.07-140.36,17.54-182.36,36.8-30,13.76-50.16,27.84-85.34,32.69-42.26,5.82-82.56-4.93-118.61-22.86l-22.58,38.6C335.7,808.27,357.28,845.9,392,845.9Z"/><path class="cls-3" d="M375.79,739.74c36,17.93,76.35,28.68,118.61,22.86,35.18-4.85,55.31-18.93,85.34-32.69,42-19.26,101-36.87,182.36-36.8L631.43,469.8v-146H533.74V469.81Z"/><path class="cls-4" d="M375.79,739.74c36,17.93,76.35,28.68,118.61,22.86,29.17-4,48-14.38,70.71-25.65a340.65,340.65,0,0,0-169.54-31Z"/><rect class="cls-5" x="527.07" y="312.7" width="111.03" height="22.13" rx="5.61" transform="translate(1165.18 647.53) rotate(-180)"/><path class="cls-6" d="M494.36,336.61c1.65,5.44-22.1,18.94-44,26.21a156.23,156.23,0,0,1-57.31,7.54,138.46,138.46,0,0,1-8.53-12.4c-3.18-5.21-4.2-7.65-7.15-12.27a102.3,102.3,0,0,0-9.35-12.44A439.93,439.93,0,0,0,443.17,337C473.81,335.91,493,332,494.36,336.61Z"/><path class="cls-7" d="M406.58,507.9q-2.9,3.81-5.83,7.58c-1.95,2.51-3.84,5.08-5.75,7.62-3.83,5.08-7.61,10.19-11.26,15.38-7.31,10.37-14.37,20.88-20.82,31.69-3.18,5.43-6.34,10.86-9.18,16.44-1.47,2.76-2.8,5.58-4.18,8.37s-2.64,5.64-3.8,8.51c-4.85,11.39-8.58,23.17-10.22,35s-.89,23.65,3.1,34.23,11.3,20.19,19.23,30c4,4.9,8.06,9.93,12,15.31q2.94,4.05,5.68,8.4a101.7,101.7,0,0,1,5,9.15,75.48,75.48,0,0,1,3.86,10,67,67,0,0,1,2.3,10.62c.15.89.23,1.8.3,2.7s.17,1.81.21,2.71c0,1.78.14,3.69,0,5.31l-.09,2.62-.06.68,0,.37-.08.72-.18,1.37c-.26,1.79-.56,3.53-.93,5.25A86.43,86.43,0,0,1,383.11,788a94.13,94.13,0,0,1-3.86,9.7,88,88,0,0,1-11,17.87l-3.43,4c-1.23,1.31-2.55,2.59-3.83,3.87a70.11,70.11,0,0,1-8.48,6.68,83.19,83.19,0,0,1-18.87,9.31,119.21,119.21,0,0,1-19.87,4.8l-5,.68c-1.66.22-3.33.32-5,.47-3.33.35-6.65.36-10,.52a229,229,0,0,1-39.2-2.91c-3.22-.49-6.41-1.09-9.61-1.66l-9.52-2c-3.14-.75-6.3-1.46-9.44-2.25s-6.25-1.62-9.35-2.51c-12.42-3.5-24.62-7.62-36.61-12.2s-23.75-9.7-35.28-15.24c-2.89-1.36-5.76-2.78-8.61-4.22s-5.72-2.84-8.54-4.35q-8.47-4.47-16.79-9.21,4.47,1.74,8.9,3.52c3,1.19,5.94,2.28,8.91,3.43s5.94,2.27,8.92,3.38,6,2.21,9,3.24c12,4.24,24,8.25,36.12,11.8s24.34,6.72,36.62,9.37a359.12,359.12,0,0,0,37,6.08l4.64.45,2.32.23,2.32.16,4.63.31c1.55.11,3.09.12,4.64.18,6.17.29,12.31.18,18.41-.09,3-.26,6.09-.37,9.08-.8,1.49-.2,3-.32,4.49-.56l4.45-.72a103.83,103.83,0,0,0,17.09-4.59,71.41,71.41,0,0,0,15.14-7.79,54.08,54.08,0,0,0,6.42-5.21c.94-1,1.9-1.94,2.84-3l2.72-3.29a76.56,76.56,0,0,0,14.28-31c.31-1.39.55-2.78.76-4.14l.13-1,.06-.46,0-.22c0-.06,0-.07,0,0v.09l.09-2.15c.11-1.56,0-2.83,0-4.23,0-.69-.1-1.37-.15-2.05a20.15,20.15,0,0,0-.21-2,50.55,50.55,0,0,0-1.7-8,65.31,65.31,0,0,0-3-7.83,85.11,85.11,0,0,0-4-7.65q-2.28-3.76-4.9-7.48c-3.5-5-7.38-9.86-11.28-15s-7.87-10.36-11.49-16.09a89.72,89.72,0,0,1-5.07-9c-.8-1.53-1.48-3.16-2.19-4.75s-1.33-3.27-1.86-5a69,69,0,0,1-2.63-10.24c-.36-1.72-.53-3.47-.78-5.2s-.35-3.48-.37-5.22a92.11,92.11,0,0,1,1.57-20.46,123.86,123.86,0,0,1,5.35-19.34A158.41,158.41,0,0,1,336,599a254.6,254.6,0,0,1,20.2-33.2,382.46,382.46,0,0,1,24-30.11q6.33-7.21,12.92-14.17C397.54,516.9,402,512.34,406.58,507.9Z"/><path class="cls-8" d="M460,590.2c-16.46,22.87-94.37,29.84-128.27-10-30.21-35.49-16.49-94.13-13.84-105.27,5.29-22.23,15-38.9,19.66-76.25a281.17,281.17,0,0,0,2.17-35.1Q359,392.69,362,391.1q1.59-.84-1.45-10.36a366.6,366.6,0,0,1,21.83-109.12,33.19,33.19,0,0,0-.79,12.11,34,34,0,0,0,5.14,13.91c12.42,19.94,60.45,55.43,65.13,76,2,8.95.22,12.77,3.85,27.73a178,178,0,0,0,10.1,29.79,59.84,59.84,0,0,1,5.42,29A64.89,64.89,0,0,1,468,476.91c-10.78,36.94-16.16,55.41-10.14,70.47,3.64,9.1,8.84,11.73,9.21,21.46A37.48,37.48,0,0,1,460,590.2Z"/><path class="cls-9" d="M420.11,558.55c-27.11-36-20.08-77.72-18.59-85.64.19-2.4,1.65-17.15,14.47-26.68,2.12-1.57,11-7.79,21.88-6.89,15.32,1.26,29.55,16.49,32.7,37.72l-3.3,87.55a33.74,33.74,0,0,1-2,16.73q-2.62,4.44-5.26,8.86A103.3,103.3,0,0,1,420.11,558.55Z"/><path class="cls-7" d="M447.68,578.4H482a3.93,3.93,0,0,1,3.93,3.93v1.19a.42.42,0,0,1-.42.42h-40a1.23,1.23,0,0,1-1.23-1.23v-.85a3.45,3.45,0,0,1,3.45-3.45Z" transform="translate(-270.77 693.33) rotate(-60)"/><ellipse class="cls-10" cx="302.58" cy="202.2" rx="55.02" ry="68.21" transform="translate(-57.05 257.96) rotate(-42.57)"/><path class="cls-8" d="M454.53,245.2c-10,18.91-45.65,39.82-56.71,48.29-18.88,14.47-37.14,45.56-32.8,119l-35.18,21.39a231.93,231.93,0,0,0,9.86-70.27,233,233,0,0,0-19.59-89.92,212,212,0,0,0-12.35-70.15c21.33-15.94,40.06-19.12,49.9-19.86,17-1.29,32.6,2.84,39.19,4.58,17.9,4.74,26.09,10.8,44.47,12.26a96.2,96.2,0,0,0,20.36-.55l2.7,4.13c-.15,3.75-.29,7.5-.44,11.24A88.68,88.68,0,0,1,454.53,245.2Z"/><rect class="cls-11" x="453.65" y="199.04" width="11.58" height="8.88" rx="4.44" transform="translate(-41 248.81) rotate(-29.06)"/><circle class="cls-12" cx="377.37" cy="214.65" r="5.88"/><circle class="cls-5" cx="381.41" cy="215.61" r="1"/><path class="cls-5" d="M405,224.84a63.16,63.16,0,0,0-9.78,6.5,55.54,55.54,0,0,0-8.17,8.27,54.26,54.26,0,0,0-6.2,9.83,62.68,62.68,0,0,0-4.11,11,40.26,40.26,0,0,1,2.94-11.53,43.53,43.53,0,0,1,6.09-10.33,48.67,48.67,0,0,1,4.06-4.43,44.48,44.48,0,0,1,4.62-3.83A40.48,40.48,0,0,1,405,224.84Z"/><path class="cls-5" d="M407.22,226.39a41,41,0,0,0-5.51,5.93,32,32,0,0,0-3.94,6.9,31.53,31.53,0,0,0-2.11,7.66,39.5,39.5,0,0,0-.27,8.08,24,24,0,0,1,.87-16.37,26.85,26.85,0,0,1,1.93-3.73,27.49,27.49,0,0,1,2.53-3.35A23.3,23.3,0,0,1,407.22,226.39Z"/><path class="cls-5" d="M410.35,227.64a29.77,29.77,0,0,0-3.87,7,23.7,23.7,0,0,0-1.49,7.7,25.8,25.8,0,0,0,1.09,7.78,34.44,34.44,0,0,0,3.24,7.38,20.83,20.83,0,0,1-4.45-7,21.56,21.56,0,0,1-1.52-8.24,20.3,20.3,0,0,1,2-8.16A19.21,19.21,0,0,1,410.35,227.64Z"/><path class="cls-8" d="M294.66,167.61c-2.39-.48-42-7.57-63.05,20-11.5,15.06-11.08,32-10.77,36.93,1.57,24.47,19.23,43.59,38.2,52.2,29.93,13.58,57.93-1.37,61.07-3.11,1.11-13.06,2.69-26.9,4.89-41.4,2.31-15.24,5.05-29.57,8-42.93C327.53,183.54,314.59,171.59,294.66,167.61Z"/><path class="cls-7" d="M320,206.63a53.73,53.73,0,0,0-4.26,44.12c-24.13,10-47.67,2-54.76-12.88-4.46-9.34-3.27-23.17,4.86-32,9.42-10.24,23.72-9.12,29.84-8.53A50.65,50.65,0,0,1,320,206.63Z"/><path class="cls-9" d="M364.36,341a98.05,98.05,0,0,1-.62-13.3,38.06,38.06,0,0,1,.93-9.11c1.91-8.49,8.86-17.43,8.86-17.43A82.9,82.9,0,0,1,394,282.75c9.58-6.32,15.38-8.2,24-12.35a179.88,179.88,0,0,0,34.57-21.93c-.66,1.12-1.74,2.87-3.21,4.89-3.22,4.4-6.92,8.18-21.71,19.09-9.33,6.89-14,10.33-16.73,11.92-4.18,2.43-5.59,2.88-6.89,4.71-4.79,6.73,1.33,19,4.36,24.61C423.92,342.31,443,348.88,456,372.58c15.48,28.19,15.3,61,15.2,87.59,0,7-.35,12.81-.64,16.89l-69.05-4.15a165.39,165.39,0,0,0-3.42-50.36C388.36,379.67,368.63,375.43,364.36,341Z"/><path class="cls-13" d="M453.32,319.41h0A26.73,26.73,0,0,1,480,346.13v99.62a0,0,0,0,1,0,0H426.59a0,0,0,0,1,0,0V346.13a26.73,26.73,0,0,1,26.73-26.73Z" transform="translate(633.96 947.58) rotate(-147.89)"/><rect class="cls-14" x="450.08" y="316.81" width="80.67" height="13.27" rx="2.41" transform="translate(733.92 858.08) rotate(-147.89)"/><path class="cls-2" d="M518.72,237.05l37.1,23.46L588.14,209a22,22,0,0,0-.21-23.69l4.22-6.74a9.17,9.17,0,1,0-15.53-9.75l-4.24,6.75A21.94,21.94,0,0,0,551,185.67Z"/><path class="cls-3" d="M475.36,306.16l37.17,23.33,43.29-69-37.1-23.46Z"/><path class="cls-8" d="M505.15,344.25c2.52,6.22-26.7,25.63-54,37.37a218.52,218.52,0,0,1-72.46,17.11,154.91,154.91,0,0,1-11.83-13.51c-4.47-5.74-6-8.49-10.07-13.56a116.23,116.23,0,0,0-12.89-13.43,605,605,0,0,0,96-6.24C478.9,346.33,503,339,505.15,344.25Z"/><path class="cls-15" d="M721.21,821.44a3.84,3.84,0,0,1-.82-2.38h0a6.79,6.79,0,0,1,1.45-3.93h0a10.42,10.42,0,0,1,3.12-2.87h0a4.77,4.77,0,0,1,2.27-.73h0a3.25,3.25,0,0,1,.44,0h0a4.17,4.17,0,0,1,2.52,1.26h0c.11.11.21.23.31.35h0c.06-.76.14-1.7.23-2.68h0c.19-2.3.38-4.86.37-5.64h0a.53.53,0,0,0,0-.14h0a5.68,5.68,0,0,1-.21-1.28h0a1.46,1.46,0,0,1,.17-.77h0a.94.94,0,0,1,.82-.47h0a1.92,1.92,0,0,1,1.94,1.9h0a2.14,2.14,0,0,1-.1.65h0a.45.45,0,0,1,0,.08h0c0,.06,0,.16,0,.28h0c0,.25-.08.58-.12,1h0c-.09.8-.19,1.86-.29,3h0c-.18,2.14-.35,4.62-.4,6.47h0a2.38,2.38,0,0,1,.63.3h0a1.16,1.16,0,0,1,.46.64h0a2.15,2.15,0,0,1,.08.55h0a1.15,1.15,0,0,1-.24.76h0a1.5,1.5,0,0,1-.55.42h0a5.89,5.89,0,0,1-.7.26h0a7.78,7.78,0,0,1,.13,1.28h0a3.39,3.39,0,0,1-.06.72h0a1.3,1.3,0,0,1-.36.71h0a1,1,0,0,1-.62.24h-.13a1.93,1.93,0,0,1-1-.33h0a1.4,1.4,0,0,1-.52-.69h0a2.77,2.77,0,0,1-.09-.33h0c-.41.26-.95.59-1.58.93h0a10.87,10.87,0,0,1-4.6,1.5h0a3.06,3.06,0,0,1-2.51-1.1Zm3.25-5.56a6,6,0,0,0-1.53,3.24h0a.8.8,0,0,0,.21.61h0a.92.92,0,0,0,.75.27h0a6.32,6.32,0,0,0,2.67-1h0c.94-.51,1.94-1.17,2.9-1.77h0c-.05-.2-.11-.46-.19-.75h0a6.2,6.2,0,0,0-.89-1.91h0a1.45,1.45,0,0,0-.84-.57h0l-.22,0h0a4.7,4.7,0,0,0-2.82,1.87Zm12.15,3.87a11.19,11.19,0,0,1-1.44-3.42h0a28.35,28.35,0,0,1-.81-5.49h0c0-.08,0-.15,0-.22h0a1.56,1.56,0,0,1,.27-1h0a1.07,1.07,0,0,1,.83-.41h0l.21,0h0a1.48,1.48,0,0,1,1.1.71h0a1.64,1.64,0,0,1,.21.83h0v.67h0a23.09,23.09,0,0,0,.4,4.31h0a5.68,5.68,0,0,0,.93,2.37h0c.23.27.39.33.56.33h0a.86.86,0,0,0,.37-.11h0a2.75,2.75,0,0,0,1.14-1.32h0A7.84,7.84,0,0,0,741,815h0a18.88,18.88,0,0,0,.22-3.34h0v-.1h0a1.7,1.7,0,0,1,.19-.88h0a1.25,1.25,0,0,1,1.13-.59h.09a1.14,1.14,0,0,1,.79.32h0a1.51,1.51,0,0,1,.37.56h0a2.07,2.07,0,0,1,.17.69h0v.11c0,.31-.1,1.66-.34,3.21h0a13.85,13.85,0,0,1-1.42,4.67h0a3.35,3.35,0,0,1-2.29,1.78h0a3.55,3.55,0,0,1-.46,0h0a3.4,3.4,0,0,1-2.83-1.66Zm10.84,2.41-.22,0h0a1.46,1.46,0,0,1-1-.58h0a1.34,1.34,0,0,1-.24-.56h0l-.14,0h0a1.3,1.3,0,0,1-.79-.59h0v0a.67.67,0,0,1,0-.16h0s0,0,0-.08h0c0-.05,0-.11,0-.18h0q0-.21,0-.57h0c0-.46,0-1.1,0-1.84h0a48.71,48.71,0,0,1,.17-5.08h0a1.61,1.61,0,0,1-.4-.87h0v0a.31.31,0,0,1,0-.1h0a1.27,1.27,0,0,1,.37-.85h0a2.61,2.61,0,0,1,.44-.37h0c0-.07,0-.16.06-.26h0c.07-.32.16-.77.25-1.29h0a20.79,20.79,0,0,0,.35-3.44h0a1,1,0,0,0,0-.17h0a2.15,2.15,0,0,0-.11-.47h0a3.34,3.34,0,0,1-.14-.84h0a1.19,1.19,0,0,1,.25-.81h0a1.33,1.33,0,0,1,.87-.44h.12a1.1,1.1,0,0,1,.73.29h0a2,2,0,0,1,.48.59h0a4,4,0,0,1,.44,1.77h0a1.09,1.09,0,0,1,0,.18h0a10,10,0,0,1-.24,2.17h0c-.12.59-.27,1.25-.43,2.18h0a10.56,10.56,0,0,1,3,.41h0a5,5,0,0,1,3.21,2.51h0a2.18,2.18,0,0,1,.21.93h0a4.48,4.48,0,0,1-.72,2.2h0a15.39,15.39,0,0,1-1.6,2.13h0a42.45,42.45,0,0,1-3.23,3.17h0l-.35.31h0a1.42,1.42,0,0,0-.24.3h0a1.31,1.31,0,0,1-.38.4h0a.88.88,0,0,1-.48.14h0Zm-.15-6.33c0,1.32.11,2.37.19,3.06h0c.26-.2.56-.45.89-.73h0a17.73,17.73,0,0,0,2.71-2.84h0a3.09,3.09,0,0,0,.71-1.65h0a.63.63,0,0,0-.07-.32h0a2.17,2.17,0,0,0-1.28-.82h0a7.66,7.66,0,0,0-2.32-.32h0l-.5,0h0c0,.18-.07.41-.11.68h0a21.78,21.78,0,0,0-.22,2.38h0v.54Zm9.49,6.92a1.68,1.68,0,0,1-.93-.32h0a1,1,0,0,1-.41-.63h0a3.48,3.48,0,0,1-.14-.74h0a20.27,20.27,0,0,1-.11-2.14h0c0-3.29.27-8.37.46-11.32h0c.1-1.5.16-2.77.22-3.77h0a11.54,11.54,0,0,1,.26-2.17h0a1.08,1.08,0,0,1,.25-.45h0a1.37,1.37,0,0,1,.92-.41h0a1.67,1.67,0,0,1,1.18.58h0a1.36,1.36,0,0,1,.31.52h0a1.91,1.91,0,0,1,.09.64h0c0,.55-.09,1.3-.24,2.61h0c-.16,1.31-.37,3.18-.62,5.89h0c-.19,2.12-.27,4.27-.25,6.15h0a31.29,31.29,0,0,0,.17,3.18h0v0c0,.11,0,.26,0,.43h0a4.58,4.58,0,0,1-.06.8h0a1.62,1.62,0,0,1-.4.84h0a1,1,0,0,1-.71.3h0Zm4.2-1.84.25-.53-.25.53a3.88,3.88,0,0,1-1.59-1.64h0a5.91,5.91,0,0,1-.72-2.73h0a5.79,5.79,0,0,1,.43-2.22h0a12.84,12.84,0,0,1,2.21-3.83h0a3.94,3.94,0,0,1,2.48-1.4h0l.22,0h0a4,4,0,0,1,2.4.9h0a5.11,5.11,0,0,1,1.83,3.26h0a5.92,5.92,0,0,1,.1,1.1h0a6.69,6.69,0,0,1-2.15,4.93h0a6.37,6.37,0,0,1-4,1.88h0a2.65,2.65,0,0,1-1.18-.23Zm3.27-9.16-.19.07h0a2.72,2.72,0,0,0-.72.47h0a7.11,7.11,0,0,0-2,3.43h0a2.72,2.72,0,0,0-.1.77h0a3.42,3.42,0,0,0,.3,1.36h0a1.2,1.2,0,0,0,.67.71h0a.69.69,0,0,0,.22,0h0a2.93,2.93,0,0,0,1.58-.75h0a4.4,4.4,0,0,0,1.19-1.4h0a5.52,5.52,0,0,0,.64-2.39h0a3.27,3.27,0,0,0-.34-1.4h0a1.91,1.91,0,0,0-.47-.71h0a1.2,1.2,0,0,0-.48-.22h0l-.27,0h0Zm-.15-.14,0-.44,0,.44Zm-53.06,4.29a9.41,9.41,0,0,1,1.71-2,11.16,11.16,0,0,1,4.68-2.24l.82.07a3.53,3.53,0,0,1,1.84.85,2.08,2.08,0,0,1,.44,2.11A3.57,3.57,0,0,1,718.8,817a8.16,8.16,0,0,1-3.12,1.15c-1.13.17-1.75.37-1.86.61s0,.54.43.89a6.83,6.83,0,0,0,2.87.94,12.58,12.58,0,0,0,3.78.23,13.16,13.16,0,0,0,2.47-.5c.64-.21,1.33.46,1.69.41s.61.16.76.64c-.72.81-1.68.57-2.46.89a13.89,13.89,0,0,1-2.9.77,16.52,16.52,0,0,1-4.11.09l-1-.12a11.5,11.5,0,0,1-3.41-1.14,4.16,4.16,0,0,1-1.27-1.23,4,4,0,0,1-.48-1.91A7.07,7.07,0,0,1,711.05,815.9Zm2.6.83a9.22,9.22,0,0,0,3.07-1c.54-.37.8-.74.77-1.1s-.43-.41-1.21-.12a4.19,4.19,0,0,0-1.66,1A15.11,15.11,0,0,0,713.65,816.73Z"/><path class="cls-15" d="M763.56,830.72a11.71,11.71,0,0,1-5.92-2.81h0a1,1,0,0,1-.32-.68h0a1,1,0,0,1,0-.17h0a1.29,1.29,0,0,1,.38-.74h0a1.42,1.42,0,0,1,.77-.39h.15a1.06,1.06,0,0,1,.76.3h0a7.36,7.36,0,0,0,1.64,1.06h0a12.75,12.75,0,0,0,1.9.76h0a13,13,0,0,0,3,.53h0c.33,0,.66,0,1,0h0a11.22,11.22,0,0,0,2-.21h0a12.47,12.47,0,0,0,2.55-.81h0a5.81,5.81,0,0,0,2.59-3h0a15.84,15.84,0,0,0,.75-4.87h0c-.17.23-.34.45-.53.66h0a6,6,0,0,1-1.09,1h0a4.35,4.35,0,0,1-1.66.69h0l-.3,0h0a1.74,1.74,0,0,1-.78-.17h0a2.66,2.66,0,0,1-.83-.57h0a4,4,0,0,1-1.12-2.64h0a2.81,2.81,0,0,1,0-.29h0a6.84,6.84,0,0,1,.52-2.74h0a17.42,17.42,0,0,1,1.43-2.79h0c.13-.21.38-.55.75-1h0a11.86,11.86,0,0,1,1.34-1.45h0a7.67,7.67,0,0,1,1.67-1.18h0a2.69,2.69,0,0,1,1.2-.32h0a2.13,2.13,0,0,1,.66.08h0a1,1,0,0,1,.36.17h0a.43.43,0,0,1,.17.32h0a.15.15,0,0,1,0,.07h0a1.12,1.12,0,0,1-.3.58h.1a1.8,1.8,0,0,1,.39,0h0c.7.1,1.16.51,1.16,1.11h0v.11h0c-.08,1.63-.17,3.27-.25,4.9h0c-.09,1.64-.25,3.27-.43,4.9h0a18.46,18.46,0,0,1-.82,4.11h0a7.69,7.69,0,0,1-.83,1.74h0a7.39,7.39,0,0,1-2.27,2.18h0a11.18,11.18,0,0,1-3,1.3h0a13.6,13.6,0,0,1-3.39.48h0a16.21,16.21,0,0,1-3.35-.29Zm11.36-19.38a4.71,4.71,0,0,0-.52.56h0l-.56.7h0a7.4,7.4,0,0,0-.91,1.37h0c-.24.48-.48,1-.71,1.45h0a7.23,7.23,0,0,0-.89,3.05h0v0h0a3.33,3.33,0,0,0,.11.86h0c.06.17.13.24.17.25h0l0,0h0l.14-.12h0a4.18,4.18,0,0,0,.45-.57h0a15.12,15.12,0,0,0,1.3-2.51h0a21.51,21.51,0,0,0,.93-2.66h0l.75-2.66h0l-.31.27Z"/><path class="cls-15" d="M780.5,821.79a6.13,6.13,0,0,1-2-1.8h0a1,1,0,0,1-.17-.51h0a1,1,0,0,1,.07-.37h0a1.64,1.64,0,0,1,.51-.71h0a1.65,1.65,0,0,1,.79-.34h.1a.8.8,0,0,1,.69.36h0a4.35,4.35,0,0,0,1.2,1.08h0a.88.88,0,0,0,.49.16h0a.79.79,0,0,0,.57-.3h0s0,0,0-.05h0a1.39,1.39,0,0,1,.06-.13h0a1.63,1.63,0,0,0,.08-.58h0v0h0a2.79,2.79,0,0,0-.22-.89h0a2.92,2.92,0,0,0-.87-1.07h0a8.26,8.26,0,0,0-.76-.56h0a3.48,3.48,0,0,1-.76-.67h0a2.88,2.88,0,0,1-.68-1.79h0a3.86,3.86,0,0,1,0-.58h0a3.78,3.78,0,0,1,1.46-2.47h0a6.56,6.56,0,0,1,2.54-1.28h0l.2,0h0a.76.76,0,0,1,.59.25h0a.87.87,0,0,1,.24.59h0a1.09,1.09,0,0,1,0,.18h0a1.55,1.55,0,0,1-1,1.17h0a4.34,4.34,0,0,0-.72.43h0a3.23,3.23,0,0,0-.67.66h0a1.36,1.36,0,0,0-.29.71h0v0h0a.77.77,0,0,0,.35.58h0a10.46,10.46,0,0,0,.84.65h0a4,4,0,0,1,.84.76h0a9.1,9.1,0,0,1,.87,1.21h0a3.59,3.59,0,0,1,.5,1.44h0c0,.17,0,.33,0,.49h0a4.53,4.53,0,0,1-.43,2h0a3.1,3.1,0,0,1-1.89,1.63h0a3.73,3.73,0,0,1-1.06.2h0a3.12,3.12,0,0,1-1.62-.43Zm2.44-2.39v0Zm-.07-.06,0-.05,0,.05Z"/><path class="cls-15" d="M777.81,804.92c.19-.29.39-.55.79-.51a.62.62,0,0,1,.57.66,1.3,1.3,0,0,1-.23.56l-1,1.64c-.19.28-.39.54-.79.5a.61.61,0,0,1-.57-.65,1.28,1.28,0,0,1,.23-.57Z"/><path class="cls-15" d="M774.07,804.68c0-.34,0-.67.32-.88a.61.61,0,0,1,.85.18,1.23,1.23,0,0,1,.15.59l.16,1.93a.85.85,0,0,1-.33.89.62.62,0,0,1-.85-.18,1.23,1.23,0,0,1-.15-.59Z"/><path class="cls-15" d="M771,805.77a.85.85,0,0,1-.05-.94.61.61,0,0,1,.85-.17,1.23,1.23,0,0,1,.37.48l.9,1.73a.83.83,0,0,1,0,.94.61.61,0,0,1-.85.16,1.23,1.23,0,0,1-.37-.48Z"/><path class="cls-15" d="M770.92,808.27c.29.17.57.36.55.77a.63.63,0,0,1-.63.6,1.25,1.25,0,0,1-.57-.21l-1.68-1c-.29-.17-.56-.36-.54-.77a.62.62,0,0,1,.63-.6,1.29,1.29,0,0,1,.57.21Z"/><path class="cls-15" d="M780.4,807a.83.83,0,0,1,.93-.14.62.62,0,0,1,.25.83,1.23,1.23,0,0,1-.43.42l-1.62,1.07a.81.81,0,0,1-.92.15.61.61,0,0,1-.26-.83,1.38,1.38,0,0,1,.44-.43Z"/><path class="cls-16" d="M400.39,579.93c-1.83.46-4.62,2.54-6.23,3.48-1.42.84-3.44,2-5.67,1.54-1-.21-2.61-.94-2.81-2.1s1.12-2.4,3.76-5c.57-.55.76-.71,1.07-1,1.4-1.34,4.93-4.73,4.55-8.67a6.76,6.76,0,0,0-3.93-5.57,6.58,6.58,0,0,0-4.47.05,9.59,9.59,0,0,0-3.56,2.4,19.19,19.19,0,0,0-4.79,6.76,15,15,0,0,0-1.44,6.93,13.69,13.69,0,0,0,1.71,6,11.54,11.54,0,0,0,4,4.28,11.72,11.72,0,0,0,4.54,1.55,14.8,14.8,0,0,0,5.58-.26,16.51,16.51,0,0,0,8.22-5c2.21-2.19,2.18-3.15,2.07-3.6a2.54,2.54,0,0,0-1.84-1.83A1.85,1.85,0,0,0,400.39,579.93ZM382.58,578c-1-.58-.1-4.89,2.37-7.45.77-.8,2.36-2.18,3.11-1.74s.2,3,.15,3.18a7.77,7.77,0,0,1-1.62,3C385.85,575.89,383.46,578.55,382.58,578Z"/><rect class="cls-16" x="376.87" y="549.92" width="3.92" height="11.41" rx="1.93" transform="translate(-222.95 255.47) rotate(-29.2)"/><rect class="cls-16" x="385.47" y="547.27" width="3.92" height="11.41" rx="1.93" transform="translate(7.72 -5.33) rotate(0.8)"/><rect class="cls-16" x="370.53" y="555.62" width="3.92" height="11.41" rx="1.93" transform="translate(1045.37 528.75) rotate(120.8)"/><rect class="cls-16" x="368.1" y="563.7" width="3.92" height="11.41" rx="1.93" transform="translate(957.14 228.07) rotate(92.85)"/><rect class="cls-16" x="393.62" y="549.44" width="3.92" height="11.41" rx="1.93" transform="translate(315.74 -121.83) rotate(28.75)"/></svg>